<svg xmlns="http://www.w3.org/2000/svg" width="640" height="720" viewBox="0 0 640 720" role="img" aria-labelledby="title desc">
<title id="title">Go 包的代码依赖</title><desc id="desc">启动入口组装适配器与基础设施。适配器依赖应用用例，基础设施实现应用定义的端口；应用依赖领域模型。箭头表示代码依赖，不表示执行顺序。</desc>
<defs><marker id="arrow" viewBox="0 0 10 10" refX="9" refY="5" markerWidth="7" markerHeight="7" orient="auto-start-reverse"><path d="M0 0 L10 5 L0 10z" fill="#64748b"/></marker></defs>
<rect width="640" height="720" rx="16" fill="#fff"/>
<g font-family="system-ui, -apple-system, 'PingFang SC', 'Microsoft YaHei', sans-serif">
<text x="32" y="44" font-size="28" text-anchor="start" fill="#1e293b">Go 包的代码依赖</text>
<rect x="40" y="92" width="560" height="76" rx="12" fill="#f5f3ff" stroke="#a78bfa" stroke-width="1.5"/><text x="320" y="138.16" font-size="24" text-anchor="middle" fill="#1e293b">cmd：组装用例与外部实现</text><path d="M174 168 L174 222" fill="none" stroke="#64748b" stroke-width="2" marker-end="url(#arrow)"/><path d="M468 168 L468 222" fill="none" stroke="#64748b" stroke-width="2" marker-end="url(#arrow)"/><rect x="40" y="226" width="268" height="100" rx="12" fill="#f8fafc" stroke="#cbd5e1" stroke-width="1.5"/><text x="174" y="267.16" font-size="24" text-anchor="middle" fill="#1e293b">adapter</text>
<text x="174" y="301.16" font-size="24" text-anchor="middle" fill="#1e293b">HTTP / 事件入口</text><rect x="332" y="226" width="268" height="100" rx="12" fill="#f8fafc" stroke="#cbd5e1" stroke-width="1.5"/><text x="466" y="267.16" font-size="24" text-anchor="middle" fill="#1e293b">infrastructure</text>
<text x="466" y="301.16" font-size="24" text-anchor="middle" fill="#1e293b">MySQL 实现</text><path d="M174 326 L174 356 L270 356 L270 404" fill="none" stroke="#64748b" stroke-width="2" marker-end="url(#arrow)"/><path d="M468 326 L468 356 L370 356 L370 404" fill="none" stroke="#64748b" stroke-width="2" marker-end="url(#arrow)"/><rect x="140" y="408" width="360" height="100" rx="12" fill="#f5f3ff" stroke="#a78bfa" stroke-width="1.5"/><text x="320" y="449.16" font-size="24" text-anchor="middle" fill="#1e293b">application</text>
<text x="320" y="483.16" font-size="24" text-anchor="middle" fill="#1e293b">用例与所需端口</text><path d="M320 508 L320 550" fill="none" stroke="#64748b" stroke-width="2" marker-end="url(#arrow)"/><rect x="140" y="554" width="360" height="80" rx="12" fill="#f8fafc" stroke="#cbd5e1" stroke-width="1.5"/><text x="320" y="602.16" font-size="24" text-anchor="middle" fill="#1e293b">domain：模型与规则</text><text x="320" y="682" font-size="22" text-anchor="middle" fill="#1e293b">箭头表示 import 依赖，不是执行顺序</text>
</g></svg>
